<svg xmlns="http://www.w3.org/2000/svg" xmlns:xlink="http://www.w3.org/1999/xlink" viewBox="0,0,256,256" width="32px" height="32px" fill-rule="nonzero"><g fill="#ffffff" fill-rule="nonzero" stroke="none" stroke-width="1" stroke-linecap="butt" stroke-linejoin="miter" stroke-miterlimit="10" stroke-dasharray="" stroke-dashoffset="0" font-family="none" font-weight="none" font-size="none" text-anchor="none" style="mix-blend-mode: normal"><g transform="scale(8,8)"><path d="M22,6c-3.25434,0 -5.90531,2.60419 -5.99219,5.83789l-3.66992,5.24609c-0.27196,-0.05152 -0.55119,-0.08398 -0.83789,-0.08398c-0.94832,0 -1.82636,0.29777 -2.55273,0.80078l-4.94727,-1.95703v5.37695l3.10547,1.22852c0.43747,2.02625 2.23949,3.55078 4.39453,3.55078c2.20363,0 4.03428,-1.59486 4.41797,-3.68945l5.77344,-4.32617c0.10278,0.00526 0.20453,0.01563 0.30859,0.01563c3.309,0 6,-2.691 6,-6c0,-3.309 -2.691,-6 -6,-6zM22,8c2.206,0 4,1.794 4,4c0,2.206 -1.794,4 -4,4c-2.206,0 -4,-1.794 -4,-4c0,-2.206 1.794,-4 4,-4zM22,9c-1.65685,0 -3,1.34315 -3,3c0,1.65685 1.34315,3 3,3c1.65685,0 3,-1.34315 3,-3c0,-1.65685 -1.34315,-3 -3,-3zM11.5,18c1.93,0 3.5,1.57 3.5,3.5c0,1.93 -1.57,3.5 -3.5,3.5c-1.42128,0 -2.64186,-0.8546 -3.18945,-2.07422l2.26953,0.89844c0.302,0.12 0.61197,0.17773 0.91797,0.17773c0.996,0 1.93817,-0.59808 2.32617,-1.58008c0.509,-1.284 -0.1203,-2.73809 -1.4043,-3.24609l-2.27734,-0.90234c0.41754,-0.17629 0.87643,-0.27344 1.35742,-0.27344z"></path></g></g></svg>